<?xml version="1.0" standalone="no"?>
<!DOCTYPE svg PUBLIC "-//W3C//DTD SVG 20010904//EN"
 "http://www.w3.org/TR/2001/REC-SVG-20010904/DTD/svg10.dtd">
<svg version="1.0" xmlns="http://www.w3.org/2000/svg"
 width="1024.000000pt" height="1024.000000pt" viewBox="0 0 1024.000000 1024.000000"
 preserveAspectRatio="xMidYMid meet">
<metadata>
Created by potrace 1.14, written by Peter Selinger 2001-2017
</metadata>
<g transform="translate(0.000000,1024.000000) scale(0.100000,-0.100000)"
fill="#000000" stroke="none">
<path d="M0 5120 l0 -5120 5120 0 5120 0 0 5120 0 5120 -5120 0 -5120 0 0
-5120z m5313 2784 c64 -22 131 -96 147 -164 27 -115 -35 -240 -142 -284 -42
-18 -126 -21 -176 -7 -92 27 -166 136 -166 245 1 162 170 267 337 210z m-1123
-196 c25 -90 27 -88 -90 -130 -118 -43 -231 -95 -303 -139 -26 -16 -51 -29
-55 -29 -4 0 -21 25 -39 55 l-32 55 32 24 c51 38 171 95 322 152 77 29 143 53
147 54 4 0 12 -19 18 -42z m492 7 c130 -88 9 -293 -131 -221 -41 22 -65 64
-65 118 -1 39 4 52 29 78 53 57 109 65 167 25z m1202 11 c49 -20 76 -61 76
-113 0 -89 -54 -140 -139 -130 -128 14 -155 191 -37 243 40 17 59 17 100 0z
m540 -41 c125 -47 326 -156 326 -176 0 -5 -14 -29 -32 -54 l-32 -45 -50 31
c-111 66 -288 141 -413 174 -2 1 22 86 32 112 5 14 53 2 169 -42z m-2141 -263
c15 -48 27 -90 27 -94 0 -3 -24 -14 -52 -23 -74 -24 -232 -93 -300 -132 l-57
-32 -52 86 c-50 83 -51 87 -33 100 66 50 368 181 419 182 16 1 25 -15 48 -87z
m2008 59 c120 -41 232 -96 328 -160 11 -7 4 -26 -38 -94 l-53 -85 -58 34 c-56
33 -220 106 -302 135 -21 7 -38 17 -38 23 0 26 55 176 65 176 6 0 49 -13 96
-29z m-2706 -256 c14 -13 25 -33 25 -45 0 -29 -44 -70 -74 -70 -28 0 -66 42
-66 72 0 25 44 68 70 68 12 0 32 -11 45 -25z m3349 -1 c9 -8 19 -27 22 -41 6
-21 1 -31 -21 -50 -46 -40 -104 -12 -105 49 0 48 70 77 104 42z m-3543 -265
c90 -94 165 -174 167 -179 2 -5 -22 -34 -53 -64 l-55 -56 -118 115 c-65 64
-128 122 -139 130 -11 8 -40 37 -63 65 l-43 51 59 54 c32 30 64 55 70 55 6 0
85 -77 175 -171z m3893 112 l59 -59 -49 -49 c-76 -76 -310 -293 -317 -293 -3
0 -30 24 -61 54 l-55 55 169 171 c106 107 174 169 181 164 8 -4 9 -3 5 4 -18
30 15 7 68 -47z m-4195 -235 l74 -74 -53 -59 -54 -60 -74 71 c-40 39 -78 73
-83 74 -5 2 -9 9 -9 15 0 17 101 116 114 111 6 -3 44 -38 85 -78z m4449 -36
c-4 -11 -345 -330 -353 -330 -3 0 -31 25 -62 56 l-57 56 42 39 c23 22 46 37
52 34 6 -4 9 -2 8 3 -3 11 147 163 219 223 l48 39 53 -56 c29 -31 52 -60 50
-64z m-2281 -20 c21 -43 -11 -72 -68 -61 -4 0 -10 8 -13 17 -4 9 -2 13 5 8 8
-4 8 -1 0 14 -9 16 -7 24 5 37 23 22 56 15 71 -15z m-2422 -286 c-11 -8 -28
-25 -37 -37 -10 -12 -18 -16 -18 -9 0 17 45 62 62 62 8 -1 5 -7 -7 -16z m4710
-14 c-16 -16 -31 -27 -34 -24 -6 6 45 54 56 54 4 0 -6 -13 -22 -30z m-4619
-26 c9 -35 -24 -79 -60 -79 -27 -1 -86 39 -75 50 3 3 17 -5 30 -17 30 -28 57
-29 71 -3 13 22 18 76 7 70 -4 -3 -10 2 -13 10 -4 13 -2 13 14 5 11 -6 23 -22
26 -36z m4724 -18 c0 -49 -72 -83 -111 -53 -22 16 -33 53 -17 54 70 4 88 8 88
23 0 9 3 20 7 24 10 10 33 -23 33 -48z m-2892 -144 c30 -31 72 -116 236 -492
293 -669 326 -747 326 -764 0 -14 -19 -16 -136 -16 l-135 0 -18 43 c-83 191
-217 496 -342 778 -92 207 -149 348 -149 368 0 74 50 120 133 121 41 0 51 -4
85 -38z m-2130 -50 l24 -19 -40 -65 c-51 -82 -70 -125 -117 -260 -21 -60 -43
-108 -49 -108 -6 0 -34 11 -63 24 l-52 25 15 53 c34 114 139 351 176 395 11
13 58 -7 106 -45z m5313 -21 c54 -103 126 -269 139 -319 6 -24 13 -49 16 -57
4 -9 -13 -20 -51 -34 -31 -12 -62 -21 -69 -21 -7 0 -24 39 -41 93 -16 50 -59
151 -95 223 l-66 131 55 31 c31 18 60 30 65 29 5 -2 26 -36 47 -76z m-1653
-56 c157 -36 361 -184 418 -303 20 -43 20 -126 -1 -158 -24 -37 -72 -57 -124
-51 -48 5 -40 -1 -165 142 -190 219 -570 151 -657 -117 -54 -169 11 -337 170
-432 31 -19 121 -61 201 -94 217 -91 296 -128 369 -176 266 -173 375 -506 267
-819 -79 -230 -249 -380 -506 -448 -59 -15 -263 -15 -320 1 -145 39 -270 112
-366 212 -69 72 -109 136 -118 191 -10 53 23 119 68 141 73 35 120 13 201 -93
103 -135 200 -190 353 -199 245 -14 422 139 457 394 16 118 -38 258 -134 346
-65 61 -158 112 -341 188 -251 105 -338 157 -430 257 -112 122 -154 236 -154
418 0 105 4 130 28 199 49 144 121 237 245 318 150 98 341 127 539 83z m1467
-120 c50 -102 95 -231 95 -270 0 -22 -8 -30 -55 -50 -100 -45 -98 -45 -125 32
-13 37 -50 124 -82 192 l-59 125 23 18 c13 9 48 31 78 47 65 36 60 40 125 -94z
m-4928 74 c38 -23 70 -43 72 -45 2 -2 -19 -47 -46 -101 -28 -54 -65 -136 -83
-183 -18 -47 -36 -89 -41 -94 -9 -10 -157 44 -163 60 -2 6 16 68 40 138 43
126 118 266 141 266 7 0 43 -19 80 -41z m1702 -431 l54 -117 -26 -68 c-14 -38
-42 -108 -62 -158 -20 -49 -57 -140 -82 -202 -36 -88 -49 -112 -66 -115 -12
-1 -74 -1 -139 2 l-116 5 43 110 c24 61 96 243 160 405 65 162 121 306 127
319 9 24 10 23 31 -20 12 -24 46 -97 76 -161z m-2097 -157 c4 0 21 -15 38 -32
40 -43 40 -87 1 -131 -25 -28 -36 -33 -76 -33 -39 0 -51 5 -71 28 -34 39 -40
73 -20 114 22 45 67 65 128 54z m5647 -6 c37 -18 64 -76 56 -115 -9 -43 -58
-80 -105 -80 -74 0 -131 82 -101 146 13 29 67 64 99 64 13 0 36 -7 51 -15z
m-5582 -437 c78 -36 135 -127 135 -217 1 -144 -105 -251 -247 -251 -73 0 -126
23 -177 76 -51 54 -69 103 -69 185 0 80 18 127 65 166 82 69 198 86 293 41z
m5660 -1 c41 -22 100 -86 118 -129 47 -115 -20 -273 -137 -322 -78 -33 -192
-15 -256 39 -58 50 -86 116 -86 200 0 104 38 165 134 216 56 29 167 27 227 -4z
m-6689 -81 c57 -30 77 -63 77 -127 0 -54 -3 -61 -36 -95 -64 -63 -155 -53
-206 25 -30 44 -31 118 -3 153 40 52 115 71 168 44z m7595 3 c123 -63 103
-240 -29 -265 -73 -13 -150 50 -161 133 -11 89 110 173 190 132z m-4107 -299
c29 -63 53 -118 54 -122 0 -5 -246 -8 -546 -8 -516 0 -546 1 -539 18 3 9 23
60 42 112 20 52 40 100 45 107 7 8 126 11 450 10 l442 -2 52 -115z m501 20
c23 -52 46 -107 52 -122 l9 -26 -139 -1 -140 -2 -21 48 c-11 26 -31 72 -44
100 -13 29 -26 64 -30 78 l-6 26 138 -3 138 -3 43 -95z m-3024 -352 c72 -38
87 -119 32 -174 -18 -18 -35 -24 -69 -24 -84 0 -135 87 -90 156 10 14 23 23
31 20 8 -3 11 -1 8 4 -4 6 4 14 17 19 32 13 46 13 71 -1z m5631 -3 c72 -30 93
-111 42 -164 -38 -40 -79 -48 -122 -25 -33 18 -64 66 -64 99 0 31 32 77 63 90
40 18 38 18 81 0z m-3968 -1 c22 -6 21 -7 -13 -92 -19 -48 -46 -111 -59 -140
-13 -29 -24 -56 -24 -60 0 -11 -158 -409 -177 -446 -19 -37 -37 -52 -81 -67
-75 -25 -159 51 -150 134 4 33 94 283 137 382 5 11 18 45 29 75 11 30 35 92
53 138 l32 82 116 0 c64 0 126 -3 137 -6z m-1351 -371 c11 -44 82 -207 122
-280 42 -76 46 -66 -62 -130 -56 -33 -60 -34 -73 -16 -43 55 -162 337 -162
384 0 12 20 24 68 42 86 33 98 33 107 0z m5106 -40 c4 -5 -5 -44 -20 -88 -48
-139 -141 -307 -141 -254 0 5 5 7 11 3 7 -4 10 -1 7 7 -2 7 3 22 13 32 10 11
15 25 12 33 -3 8 -1 14 3 14 5 0 9 11 9 25 0 14 -3 25 -7 25 -5 0 -8 9 -8 20
0 11 -7 20 -15 20 -8 0 -15 5 -15 10 0 7 6 7 19 1 10 -6 21 -7 25 -4 13 14 38
12 32 -2 -3 -8 -1 -17 3 -20 5 -2 11 6 13 20 3 14 2 25 -1 25 -4 0 -8 9 -9 20
-7 56 -7 85 -2 90 3 3 -2 13 -13 23 -18 19 -19 18 -12 -2 3 -12 2 -21 -4 -21
-5 0 -13 -9 -16 -20 -4 -11 -11 -18 -16 -14 -6 4 -4 13 6 24 9 10 15 24 14 32
-6 45 -2 47 53 27 28 -10 55 -22 59 -26z m237 -91 c7 -22 -81 -249 -103 -264
-5 -4 -7 -8 -2 -8 12 0 -22 -60 -34 -60 -6 0 -7 -5 -4 -10 7 -11 -43 -110 -55
-110 -4 0 -13 7 -20 15 -7 8 -30 25 -51 37 -41 23 -47 32 -27 44 7 4 8 3 4 -4
-8 -14 61 -58 84 -54 13 3 13 2 0 -8 -13 -10 -13 -11 0 -7 8 2 14 12 13 21 0
11 4 15 13 12 19 -7 18 -1 -3 20 -16 16 -16 16 6 9 16 -5 21 -4 17 4 -4 6 -2
11 5 11 8 0 7 5 -2 17 -8 9 -9 14 -2 10 15 -10 23 14 11 36 -12 23 -2 35 15
17 10 -10 9 -11 -3 -5 -13 8 -13 7 -1 -8 17 -22 21 -21 16 2 -2 11 5 27 16 37
24 21 25 35 2 27 -16 -6 -17 -5 -3 12 14 17 13 17 -10 10 -24 -7 -24 -6 -5 8
16 13 17 17 6 31 -9 11 -10 16 -2 16 8 0 10 12 8 33 -2 17 -2 24 0 14 2 -9 9
-15 14 -12 5 4 9 1 9 -5 0 -6 4 -9 9 -5 6 3 14 -3 20 -12 9 -16 10 -16 8 4 0
12 -6 21 -11 20 -12 -2 -26 81 -14 87 5 2 3 3 -4 2 -8 -2 -12 -15 -11 -32 2
-25 0 -23 -11 11 l-13 40 -7 -32 c-4 -18 -12 -33 -17 -33 -5 0 -9 -7 -9 -15 0
-8 -5 -15 -11 -15 -7 0 -8 7 -4 18 4 9 16 42 27 74 l19 56 57 -23 c31 -13 58
-27 60 -33z m-324 33 c-4 -8 -8 -15 -10 -15 -2 0 -4 7 -4 15 0 8 4 15 10 15 5
0 7 -7 4 -15z m-5359 -5 c4 -6 3 -10 -2 -9 -4 1 -21 -3 -37 -10 -16 -6 -31 -9
-34 -7 -3 4 13 13 65 35 1 1 5 -4 8 -9z m75 -34 c0 -6 -7 -2 -15 8 -8 11 -15
25 -15 30 0 6 7 2 15 -8 8 -11 15 -25 15 -30z m5171 7 c-12 -20 -14 -14 -5 12
4 9 9 14 11 11 3 -2 0 -13 -6 -23z m59 7 c0 -5 -2 -10 -4 -10 -3 0 -8 5 -11
10 -3 6 -1 10 4 10 6 0 11 -4 11 -10z m22 -22 c-7 -7 -12 -8 -12 -2 0 14 12
26 19 19 2 -3 -1 -11 -7 -17z m40 -20 c-18 -18 -30 -5 -20 22 9 23 10 24 20 7
7 -13 7 -22 0 -29z m-5311 15 c13 -16 12 -17 -3 -4 -10 7 -18 15 -18 17 0 8 8
3 21 -13z m-101 -8 c0 -8 -2 -15 -4 -15 -2 0 -6 7 -10 15 -3 8 -1 15 4 15 6 0
10 -7 10 -15z m146 -69 c-2 -6 -8 -1 -11 11 -4 13 -12 20 -18 16 -7 -4 -8 0
-4 11 4 10 7 23 8 29 0 7 7 -3 15 -22 8 -18 13 -38 10 -45z m5184 64 c0 -5
-10 -10 -22 -10 -19 0 -20 2 -8 10 19 13 30 13 30 0z m-36 -36 c3 -8 2 -12 -4
-9 -6 3 -10 10 -10 16 0 14 7 11 14 -7z m-43 -17 c-10 -9 -11 -8 -5 6 3 10 9
15 12 12 3 -3 0 -11 -7 -18z m66 -9 c-3 -7 -5 -2 -5 12 0 14 2 19 5 13 2 -7 2
-19 0 -25z m-5273 -68 c3 -14 -3 -7 -13 15 -11 22 -20 45 -20 50 0 15 26 -37
33 -65z m5213 54 c-3 -3 -12 -4 -19 -1 -8 3 -5 6 6 6 11 1 17 -2 13 -5z m101
-29 c-1 -19 -6 -35 -11 -35 -5 0 -7 -6 -4 -13 3 -8 -3 -13 -14 -13 -11 0 -15
4 -10 9 5 5 7 17 4 26 -4 13 -3 14 5 2 8 -11 12 -6 17 22 9 47 16 48 13 2z
m188 -2 c-8 -15 -15 -25 -16 -21 0 12 23 58 27 54 3 -2 -2 -17 -11 -33z
m-5398 7 c-7 -10 -14 -17 -17 -15 -4 4 18 35 25 35 2 0 -1 -9 -8 -20z m76
-155 c-4 -10 -2 -13 8 -10 9 4 20 -7 31 -30 19 -40 22 -59 7 -50 -5 3 -10 2
-10 -3 0 -11 -50 -35 -58 -27 -3 3 0 5 8 5 10 0 10 3 1 14 -9 11 -9 16 0 22 7
4 9 3 5 -4 -11 -19 15 -25 34 -7 16 15 17 19 3 46 -17 34 -24 37 -20 8 1 -14
-4 -23 -16 -24 -9 -2 -15 1 -11 6 3 5 10 7 15 4 11 -7 11 -3 3 20 -6 13 -9 14
-16 3 -10 -13 -7 -1 9 39 5 12 3 14 -7 8 -9 -6 -11 -4 -6 4 5 7 0 21 -9 31 -9
10 -14 23 -11 28 3 5 -6 12 -19 15 -17 3 -29 -1 -35 -12 -5 -9 -10 -11 -10 -6
0 6 -4 4 -9 -3 -7 -11 -9 -11 -14 2 -4 9 -3 15 1 15 22 -4 31 3 26 19 -4 12
-3 13 3 4 7 -9 13 -5 22 15 l13 28 34 -73 c18 -39 31 -79 28 -87z m4992 119
c-4 -9 -9 -15 -11 -12 -3 3 -3 13 1 22 4 9 9 15 11 12 3 -3 3 -13 -1 -22z
m304 -33 c-6 -12 -9 -25 -6 -30 3 -4 -1 -8 -8 -8 -12 0 -11 7 2 34 8 18 17 31
20 29 2 -2 -1 -14 -8 -25z m-5457 -11 c3 -11 1 -18 -4 -14 -5 3 -9 12 -9 20 0
20 7 17 13 -6z m5237 6 c0 -3 -4 -8 -10 -11 -5 -3 -10 -1 -10 4 0 6 5 11 10
11 6 0 10 -2 10 -4z m-74 -37 c3 -6 -5 -3 -20 6 -14 10 -26 19 -26 22 0 7 39
-17 46 -28z m-5076 1 c0 -5 -2 -10 -4 -10 -3 0 -8 5 -11 10 -3 6 -1 10 4 10 6
0 11 -4 11 -10z m5135 -38 c-6 -7 -35 18 -35 31 0 5 9 2 20 -8 11 -10 18 -20
15 -23z m49 -7 c-4 -8 -11 -15 -16 -15 -6 0 -5 6 2 15 7 8 14 15 16 15 2 0 1
-7 -2 -15z m-5154 -147 c0 -5 -5 -8 -11 -8 -5 0 -7 5 -4 10 3 6 2 10 -3 10 -5
0 -14 12 -21 28 l-11 27 25 -30 c14 -16 25 -33 25 -37z m364 -109 c46 -36 30
-95 -31 -113 -16 -5 -23 -3 -23 6 0 10 -3 9 -10 -2 -9 -13 -14 -11 -35 13 -32
36 -32 62 1 92 33 30 63 32 98 4z m4713 13 c13 -2 43 -52 43 -71 0 -34 -89
-81 -91 -48 0 9 -2 9 -6 -1 -9 -22 -53 27 -53 59 0 50 36 70 107 61z m-4153
-275 c-1 -9 2 -15 6 -12 10 6 83 -71 79 -84 -2 -5 -79 -86 -171 -179 l-168
-169 -61 58 c-33 32 -59 62 -58 67 9 20 354 342 363 339 6 -2 10 -11 10 -20z
m3628 -74 c57 -54 137 -130 178 -170 l75 -72 -65 -66 -64 -65 -84 88 c-46 48
-125 129 -176 179 l-91 93 31 30 c17 17 39 33 50 34 10 2 19 9 20 17 2 25 4
29 14 29 6 0 56 -44 112 -97z m-1844 45 c31 -31 -6 -96 -47 -83 -12 3 -22 9
-22 13 -6 33 -5 59 3 70 13 15 50 16 66 0z m1695 -426 c45 -40 -12 -127 -70
-106 -16 5 -32 21 -37 35 -26 75 47 123 107 71z m-3363 -2 c11 -11 20 -26 20
-32 0 -7 -7 -2 -16 10 -9 13 -26 27 -38 32 -17 7 -17 9 -3 9 9 1 26 -8 37 -19z
m-65 0 c-3 -5 -11 -10 -16 -10 -6 0 -7 5 -4 10 3 6 11 10 16 10 6 0 7 -4 4
-10z m506 -55 c60 -31 148 -71 196 -90 80 -31 88 -36 86 -59 -2 -33 -54 -166
-65 -166 -37 0 -364 148 -416 189 l-24 17 52 82 c29 45 55 82 58 82 3 0 54
-25 113 -55z m2529 21 c0 -6 -7 -3 -14 7 -9 12 -16 14 -21 8 -3 -6 -1 -11 5
-11 6 0 9 -4 5 -9 -3 -6 3 -8 14 -6 14 2 27 -9 49 -45 43 -69 47 -87 22 -100
-11 -6 -26 -8 -32 -4 -6 4 -8 3 -5 -3 5 -8 -126 -83 -146 -83 -12 0 -8 22 6
34 11 9 9 15 -11 34 l-24 23 8 -23 c6 -20 5 -21 -10 -9 -14 12 -19 11 -36 -4
-10 -9 -24 -14 -29 -10 -6 3 -11 1 -11 -4 0 -6 5 -11 11 -11 5 0 7 -5 3 -11
-7 -13 -44 41 -36 55 2 4 8 3 11 -3 5 -8 13 -7 27 3 16 13 17 18 7 35 -16 26
-16 31 -2 31 7 0 17 -8 24 -17 11 -15 15 -15 29 -4 17 15 22 41 7 41 -6 0 -12
-4 -16 -9 -3 -6 -18 -6 -38 0 -43 12 -53 11 -39 -3 17 -17 15 -33 -3 -18 -8 6
-23 9 -35 5 -51 -16 -9 11 118 74 133 67 163 74 162 37z m-2990 -10 c0 5 -5
15 -12 22 -9 9 -9 12 0 12 11 0 14 -4 16 -31 1 -7 -12 -13 -29 -15 -19 -2 -25
0 -16 5 9 6 10 11 2 15 -6 4 -9 12 -5 17 3 5 14 -1 24 -13 11 -13 19 -18 20
-12z m-46 -31 c14 -14 22 -25 17 -25 -8 0 -51 38 -51 45 0 10 10 4 34 -20z
m66 -9 c0 -2 -7 -7 -16 -10 -8 -3 -12 -2 -9 4 6 10 25 14 25 6z m2655 -66 c-3
-5 -14 -10 -23 -9 -14 0 -13 2 3 9 27 11 27 11 20 0z m-45 -14 c0 -3 -13 -11
-30 -20 -16 -8 -30 -11 -30 -7 0 4 10 13 23 19 24 12 37 14 37 8z m140 -27 c0
-6 -4 -7 -10 -4 -5 3 -10 11 -10 16 0 6 5 7 10 4 6 -3 10 -11 10 -16z m60 -43
c0 -8 -6 -16 -14 -19 -10 -4 -12 0 -9 14 6 22 23 26 23 5z m-112 -27 c-8 -23
-13 -27 -19 -17 -5 7 -4 14 1 16 6 2 10 10 10 18 0 8 4 14 9 14 6 0 6 -12 -1
-31z m147 21 c-3 -5 -11 -10 -16 -10 -6 0 -7 5 -4 10 3 6 11 10 16 10 6 0 7
-4 4 -10z m-15 -29 c0 -11 -31 -24 -39 -16 -3 3 1 10 9 15 19 12 30 12 30 1z
m-171 -28 c-8 -9 -13 -26 -11 -37 2 -19 1 -18 -12 4 -13 23 -13 26 7 37 29 16
32 16 16 -4z m117 2 c9 -8 11 -15 6 -15 -5 0 -15 7 -22 15 -7 8 -9 15 -6 15 4
0 14 -7 22 -15z m318 1 c-3 -8 -13 -17 -22 -21 -13 -5 -13 -2 3 15 21 24 26
25 19 6z m35 -16 c4 -3 18 -20 30 -39 23 -33 24 -33 3 -22 -12 7 -22 17 -22
23 0 7 -5 6 -15 -2 -9 -8 -15 -9 -15 -2 0 6 5 14 11 18 8 4 8 9 0 17 -6 6 -11
18 -10 27 0 13 1 13 6 0 3 -8 9 -17 12 -20z m-1378 -7 c230 -117 151 -463
-106 -463 -119 0 -208 72 -240 196 -18 69 -12 112 22 172 32 57 57 78 117 101
75 29 141 27 207 -6z m860 -3 c5 0 9 -10 9 -22 0 -28 -17 -12 -23 22 -2 14 -2
19 0 13 3 -7 9 -13 14 -13z m89 6 c0 -11 -19 -15 -25 -6 -3 5 1 10 9 10 9 0
16 -2 16 -4z m-373 -52 c76 -49 72 -178 -7 -219 -72 -37 -156 -4 -180 71 -23
70 7 135 75 159 43 16 77 12 112 -11z m-1231 0 c32 -22 56 -68 56 -109 0 -131
-171 -172 -233 -55 -32 59 -18 117 38 159 35 25 104 28 139 5z m1849 -4 c-3
-5 -12 -10 -18 -10 -7 0 -6 4 3 10 19 12 23 12 15 0z m204 -14 c10 -12 7 -18
-17 -30 -24 -12 -29 -13 -29 -1 0 8 4 12 8 10 11 -8 40 6 34 16 -3 4 -13 6
-23 3 -14 -5 -15 -4 -2 5 19 13 15 14 29 -3z m-59 -51 c0 -2 -6 -5 -13 -8 -8
-3 -14 1 -14 8 0 7 6 11 14 8 7 -3 13 -6 13 -8z m-390 -35 c-8 -5 -19 -10 -25
-10 -5 0 -3 5 5 10 8 5 20 10 25 10 6 0 3 -5 -5 -10z m320 -5 c-14 -8 -29 -14
-35 -14 -5 0 1 6 15 14 14 8 30 14 35 14 6 0 -1 -6 -15 -14z m-342 -81 c-3
-14 -5 -12 -10 9 -3 19 -2 25 4 19 6 -6 8 -18 6 -28z m-2183 -14 c3 -6 -1 -7
-9 -4 -18 7 -21 14 -7 14 6 0 13 -4 16 -10z"/>
<path d="M7241 6736 c-9 -11 -9 -16 0 -22 8 -4 9 -3 5 4 -10 16 6 15 24 0 12
-11 12 -10 2 3 -6 9 -9 19 -5 22 3 4 2 7 -4 7 -6 0 -16 -6 -22 -14z"/>
<path d="M7085 6570 c3 -5 8 -10 11 -10 2 0 4 5 4 10 0 6 -5 10 -11 10 -5 0
-7 -4 -4 -10z"/>
<path d="M7585 6390 c-3 -6 1 -7 9 -4 18 7 21 14 7 14 -6 0 -13 -4 -16 -10z"/>
<path d="M7740 3785 c0 -8 5 -15 11 -15 6 0 8 -9 4 -22 -7 -22 -7 -23 8 -3 11
14 12 25 6 37 -12 22 -29 23 -29 3z"/>
<path d="M8021 3794 c0 -11 3 -14 6 -6 3 7 2 16 -1 19 -3 4 -6 -2 -5 -13z"/>
<path d="M8005 3731 c-3 -5 -1 -12 5 -16 5 -3 10 1 10 9 0 18 -6 21 -15 7z"/>
<path d="M8000 3690 c0 -5 5 -10 10 -10 6 0 10 5 10 10 0 6 -4 10 -10 10 -5 0
-10 -4 -10 -10z"/>
<path d="M2516 3711 c-4 -7 -5 -15 -2 -18 9 -9 19 4 14 18 -4 11 -6 11 -12 0z"/>
<path d="M2838 3303 c7 -3 16 -2 19 1 4 3 -2 6 -13 5 -11 0 -14 -3 -6 -6z"/>
<path d="M2835 3280 c4 -6 11 -8 16 -5 14 9 11 15 -7 15 -8 0 -12 -5 -9 -10z"/>
<path d="M2795 3270 c-8 -13 9 -20 24 -11 10 6 9 10 -3 14 -8 3 -18 2 -21 -3z"/>
<path d="M7590 3229 c0 -5 5 -7 10 -4 6 3 10 8 10 11 0 2 -4 4 -10 4 -5 0 -10
-5 -10 -11z"/>
<path d="M5227 3020 c3 -11 9 -20 15 -20 5 0 4 9 -2 20 -6 11 -12 20 -14 20
-2 0 -2 -9 1 -20z"/>
<path d="M5200 3021 c0 -7 -4 -9 -10 -6 -6 4 -7 -1 -3 -11 6 -15 7 -15 15 1 6
9 7 19 4 22 -3 4 -6 1 -6 -6z"/>
<path d="M6383 2522 c-46 -18 -56 -32 -22 -32 11 0 17 5 14 10 -3 6 0 10 7 10
8 0 23 7 34 15 23 17 21 17 -33 -3z"/>
<path d="M6450 2529 c0 -5 5 -7 10 -4 6 3 10 8 10 11 0 2 -4 4 -10 4 -5 0 -10
-5 -10 -11z"/>
<path d="M6465 2390 c-3 -5 -1 -10 4 -10 6 0 11 5 11 10 0 6 -2 10 -4 10 -3 0
-8 -4 -11 -10z"/>
<path d="M6455 2360 c-3 -6 1 -7 9 -4 18 7 21 14 7 14 -6 0 -13 -4 -16 -10z"/>
</g>
</svg>
